<svg width="76" height="81" viewBox="0 0 76 81" fill="none" xmlns="http://www.w3.org/2000/svg">
<path d="M33.3811 23H43.3977V53.6051C43.3977 57.0414 42.5726 60.0482 40.9225 62.6256C39.2878 65.203 36.9975 67.2123 34.0519 68.6547C31.1063 70.0813 27.6749 70.7947 23.7577 70.7947C19.8251 70.7947 16.386 70.0813 13.4403 68.6547C10.4947 67.2123 8.20451 65.203 6.5698 62.6256C4.93505 60.0482 4.11768 57.0414 4.11768 53.6051V23H14.1343V52.7537C14.1343 54.5486 14.5276 56.144 15.3141 57.54C16.1161 58.9361 17.2419 60.033 18.6915 60.8306C20.1412 61.6282 21.83 62.0273 23.7577 62.0273C25.7009 62.0273 27.3896 61.6282 28.8239 60.8306C30.2735 60.033 31.3916 58.9361 32.1782 57.54C32.9801 56.144 33.3811 54.5486 33.3811 52.7537V23Z" fill="black"/>
<path d="M48.0551 70.1273H31.2605V23H48.194C52.9594 23 57.0619 23.9434 60.5009 25.8304C63.9399 27.702 66.5846 30.3943 68.4352 33.9074C70.3016 37.4204 71.2348 41.6238 71.2348 46.5176C71.2348 51.4267 70.3016 55.6454 68.4352 59.1738C66.5846 62.7023 63.9247 65.4098 60.4547 67.2971C57 69.1839 52.8669 70.1273 48.0551 70.1273ZM41.2771 61.5899H47.6388C50.5998 61.5899 53.0905 61.0682 55.1108 60.0255C57.1465 58.9668 58.673 57.3329 59.6909 55.1238C60.7245 52.8994 61.2408 50.0307 61.2408 46.5176C61.2408 43.0352 60.7245 40.1895 59.6909 37.9804C58.673 35.7713 57.1541 34.1452 55.1336 33.102C53.1136 32.0588 50.6229 31.5372 47.6619 31.5372H41.2771V61.5899Z" fill="black"/>
<path d="M47.6875 1.3125H29.3125C28.5127 1.3125 27.9016 2.01797 28.0123 2.80957L30.3092 17.4316C30.4938 18.7236 31.6012 19.6834 32.9096 19.6834H44.1069C45.4112 19.6834 46.5227 18.7236 46.7072 17.4316L48.9877 2.80957C49.0985 2.01797 48.4873 1.3125 47.6875 1.3125ZM46.1535 3.9375L44.9231 11.8125H32.0852L30.8465 3.9375H46.1535Z" fill="black"/>
</svg>
